<?xml version="1.0" encoding="UTF-8"?>
<svg version="1.1" viewBox="0 0 10 8" xml:space="preserve" xmlns="http://www.w3.org/2000/svg">
<path d="m8.8207 2.7566c-0.10467-0.871-0.849-1.5392-1.7373-1.5392-0.29433 0-0.57967 0.072667-0.83483 0.2115-0.47467-0.7515-1.2893-1.2115-2.1652-1.2115-1.1398 0-2.1415 0.7705-2.4712 1.8868-0.9405 0.2165-1.6122 1.0538-1.6122 2.0298 0 0.925 0.62283 1.7445 1.5 2.0005 3.334e-4 0.78083 0.63567 1.4162 1.4167 1.4162 0.398 0 0.77133-0.16533 1.0372-0.45133 0.3935 0.49517 0.98733 0.78467 1.6295 0.78467 0.8135 0 1.5563-0.48183 1.8933-1.2132 0.144 0.030833 0.29117 0.0465 0.44 0.0465 1.1488 0 2.0833-0.9345 2.0833-2.0833 0-0.80483-0.45967-1.5312-1.1793-1.8775zm-0.904 3.6275c-0.1675 0-0.33283-0.023667-0.49133-0.07-0.084-0.024667-0.17217 0.019833-0.203 0.10133-0.25467 0.67917-0.91333 1.1353-1.639 1.1353-0.60483 0-1.1587-0.30583-1.4817-0.818-0.030167-0.047833-0.082667-0.077167-0.13933-0.077833h-0.00167c-0.056 0-0.10817 0.028167-0.13917 0.074833-0.20117 0.30533-0.5395 0.48767-0.90483 0.48767-0.59733 0-1.0833-0.486-1.0833-1.0833 0-0.037333 0.00183-0.074167 0.0055-0.1105 0.0085-0.084333-0.0475-0.16167-0.13033-0.1795-0.79683-0.17383-1.3752-0.893-1.3752-1.71 0-0.85 0.60633-1.5745 1.4415-1.723 0.0645-0.011333 0.11617-0.0595 0.13233-0.123 0.26-1.0228 1.1547-1.7373 2.1762-1.7373 0.81067 0 1.5622 0.45533 1.9612 1.1883 0.0225 0.041333 0.0615 0.071333 0.10733 0.082333 0.045833 0.011167 0.094167 0.00217 0.13317-0.024333 0.2355-0.16117 0.5115-0.24633 0.79833-0.24633 0.74683 0 1.368 0.58333 1.4138 1.328 0.00383 0.063 0.043167 0.1185 0.10133 0.14317 0.64883 0.27483 1.0682 0.90767 1.0682 1.6122 0 0.965-0.785 1.75-1.75 1.75z" stroke-width=".16667"/>
<path d="m5.5817 4.8841h-0.16333c-0.164 0-0.312 0.068167-0.41833 0.177-0.10633-0.10883-0.25433-0.177-0.41833-0.177h-0.16333c-0.32267 0-0.585 0.26167-0.585 0.58333v0.25h0.33333v-0.25c0-0.13783 0.113-0.25 0.25167-0.25h0.16333c0.13867 0 0.25167 0.11217 0.25167 0.25v0.58333h0.33333v-0.58333c0-0.13783 0.113-0.25 0.25167-0.25h0.16333c0.13867 0 0.25167 0.11217 0.25167 0.25v0.58333h0.33333v-0.58333c0-0.32167-0.26233-0.58333-0.585-0.58333z" stroke-width=".16667"/>
<circle cx="6.1667" cy="3.5507" r=".33333" stroke-width=".16667"/>
<circle cx="3.8333" cy="3.5507" r=".33333" stroke-width=".16667"/>
<path d="m4.8333 3.5507c0-0.5515-0.4485-1-1-1s-1 0.4485-1 1 0.4485 1 1 1 1-0.4485 1-1zm-1.6667 0c0-0.36767 0.299-0.66667 0.66667-0.66667s0.66667 0.299 0.66667 0.66667c0 0.36767-0.299 0.66667-0.66667 0.66667s-0.66667-0.299-0.66667-0.66667z" stroke-width=".16667"/>
<path d="m6.1667 2.5507c-0.5515 0-1 0.4485-1 1s0.4485 1 1 1 1-0.4485 1-1-0.4485-1-1-1zm0 1.6667c-0.36767 0-0.66667-0.299-0.66667-0.66667 0-0.36767 0.299-0.66667 0.66667-0.66667s0.66667 0.299 0.66667 0.66667c0 0.36767-0.299 0.66667-0.66667 0.66667z" stroke-width=".16667"/>
</svg>
